HIERARCHY
ROOT root
{
  OFFSET 0.000000 0.000000 0.000000
  CHANNELS 6 Xposition Yposition Zposition Zrotation Yrotation Xrotation
  JOINT lhipjoint
  {
    OFFSET 0.000000 0.000000 0.000000
    CHANNELS 3 Zrotation Yrotation Xrotation
    JOINT lfemur
    {
      OFFSET 0.101782 -0.086417 0.056216
      CHANNELS 3 Zrotation Yrotation Xrotation
      JOINT ltibia
      {
        OFFSET 0.127100 -0.349205 0.000000
        CHANNELS 3 Zrotation Yrotation Xrotation
        JOINT lfoot
        {
          OFFSET 0.127904 -0.351413 0.000000
          CHANNELS 3 Zrotation Yrotation Xrotation
          JOINT ltoes
          {
            OFFSET 0.013378 -0.036756 0.121834
            CHANNELS 3 Zrotation Yrotation Xrotation
            End Site
            {
              OFFSET 0.000000 -0.000000 0.063753
            }
          }
        }
      }
    }
  }
  JOINT rhipjoint
  {
    OFFSET 0.000000 0.000000 0.000000
    CHANNELS 3 Zrotation Yrotation Xrotation
    JOINT rfemur
    {
      OFFSET -0.109489 -0.086417 0.056216
      CHANNELS 3 Zrotation Yrotation Xrotation
      JOINT rtibia
      {
        OFFSET -0.128713 -0.353638 0.000000
        CHANNELS 3 Zrotation Yrotation Xrotation
        JOINT rfoot
        {
          OFFSET -0.127276 -0.349689 0.000000
          CHANNELS 3 Zrotation Yrotation Xrotation
          JOINT rtoes
          {
            OFFSET -0.016016 -0.044004 0.125948
            CHANNELS 3 Zrotation Yrotation Xrotation
            End Site
            {
              OFFSET -0.000000 -0.000000 0.066547
            }
          }
        }
      }
    }
  }
  JOINT lowerback
  {
    OFFSET 0.000000 0.000000 0.000000
    CHANNELS 3 Zrotation Yrotation Xrotation
    JOINT upperback
    {
      OFFSET -0.000050 0.119713 -0.001584
      CHANNELS 3 Zrotation Yrotation Xrotation
      JOINT thorax
      {
        OFFSET -0.000162 0.118345 0.007323
        CHANNELS 3 Zrotation Yrotation Xrotation
        JOINT lowerneck
        {
          OFFSET -0.000004 0.118618 0.007924
          CHANNELS 3 Zrotation Yrotation Xrotation
          JOINT upperneck
          {
            OFFSET 0.004136 0.103590 0.004115
            CHANNELS 3 Zrotation Yrotation Xrotation
            JOINT head
            {
              OFFSET -0.003772 0.098763 -0.027963
              CHANNELS 3 Zrotation Yrotation Xrotation
              End Site
              {
                OFFSET -0.001918 0.104514 -0.009919
              }
            }
          }
        }
        JOINT lclavicle
        {
          OFFSET -0.000004 0.118618 0.007924
          CHANNELS 3 Zrotation Yrotation Xrotation
          JOINT lhumerus
          {
            OFFSET 0.170526 0.066614 0.022918
            CHANNELS 3 Zrotation Yrotation Xrotation
            JOINT lradius
            {
              OFFSET 0.258819 -0.000000 -0.000000
              CHANNELS 3 Zrotation Yrotation Xrotation
              JOINT lwrist
              {
                OFFSET 0.151799 -0.000000 -0.000000
                CHANNELS 3 Zrotation Yrotation Xrotation
                End Site
                {
                  OFFSET 0.075900 -0.000000 -0.000000
                }
              }
            }
          }
        }
        JOINT rclavicle
        {
          OFFSET -0.000004 0.118618 0.007924
          CHANNELS 3 Zrotation Yrotation Xrotation
          JOINT rhumerus
          {
            OFFSET -0.166553 0.067080 0.017740
            CHANNELS 3 Zrotation Yrotation Xrotation
            JOINT rradius
            {
              OFFSET -0.252561 -0.000000 -0.000000
              CHANNELS 3 Zrotation Yrotation Xrotation
              JOINT rwrist
              {
                OFFSET -0.165888 -0.000000 -0.000000
                CHANNELS 3 Zrotation Yrotation Xrotation
                End Site
                {
                  OFFSET -0.082944 -0.000000 -0.000000
                }
              }
            }
          }
        }
      }
    }
  }
}
MOTION
Frames: 10
Frame Time: 0.04166667
0.00000 0.88492 0.00000 -0.08575 -17.39120 12.54900 0.00000 -0.00000 0.00000 -10.47745 -1.87505 -31.79654 7.94887 16.08152 52.37830 0.31520 -2.36914 -10.04952 0.71113 -5.38943 -15.02269 0.00000 -0.00000 0.00000 16.48353 13.07838 -17.90219 -2.73399 -10.25145 29.79490 -1.17142 -6.01222 -23.43841 -0.16538 2.61998 -7.22246 5.28193 -1.12553 0.56480 -0.18783 -1.34209 -5.29275 -3.07435 -0.93904 -5.95641 20.75830 14.61990 1.14949 -19.11260 23.50850 21.24890 -7.28672 11.37790 11.62200 0.00000 0.00000 0.00000 -87.85177 -15.60333 48.31876 105.12391 -59.11784 -73.05889 -0.00000 0.00000 -42.75630 0.00000 0.00000 0.00000 87.30257 13.67425 59.88576 -111.11963 58.24567 -78.18241 0.00000 -0.00000 -27.82760
0.00000 0.88526 0.00000 0.22205 -18.75880 12.17590 0.00000 -0.00000 0.00000 -8.71216 -1.25163 -32.94075 6.66743 15.04533 47.60502 0.32159 2.62485 -12.00368 0.47523 -4.42109 -12.26447 0.00000 -0.00000 0.00000 15.46108 12.94653 -17.62067 -2.71577 -10.22006 29.69234 -1.06749 -6.09212 -22.61769 -0.16453 2.61325 -7.20378 4.60815 -1.49365 1.58712 -0.24352 -1.81300 -5.18439 -2.70134 -1.14857 -6.44812 21.39510 15.09150 2.16072 -19.66870 24.52760 21.52880 -7.45816 11.90820 11.98410 -0.00000 0.00000 0.00000 -92.73250 -24.12092 54.75513 114.99607 -57.50225 -81.46571 -0.00000 0.00000 -47.33610 -0.00000 0.00000 0.00000 92.57782 24.40354 69.07993 -120.82056 56.08729 -86.34077 0.00000 -0.00000 -24.46960
0.00000 0.88512 0.00000 0.45237 -19.28530 12.18520 0.00000 -0.00000 0.00000 -6.36369 -2.84917 -31.24290 4.06278 12.24347 36.59881 -0.06907 10.43376 -13.72101 0.16268 -2.59858 -7.16310 0.00000 -0.00000 0.00000 14.39718 12.37128 -17.45281 -2.67883 -10.15603 29.48349 -1.02653 -6.17321 -22.31766 -0.19288 2.82828 -7.80104 4.03326 -1.79601 2.32410 -0.31156 -2.21649 -5.38322 -2.39257 -1.33537 -7.09690 21.86770 15.36310 2.88949 -19.64100 25.11440 22.05490 -7.45763 12.24540 12.27700 -0.00000 -0.00000 0.00000 -97.63018 -31.19780 60.74496 119.69856 -56.38972 -85.40798 -0.00000 0.00000 -52.13440 -0.00000 -0.00000 0.00000 97.39504 32.05529 77.33678 -127.36556 54.00429 -91.70792 0.00000 -0.00000 -19.70140
0.00000 0.88432 0.00000 0.17930 -19.15890 12.51320 0.00000 -0.00000 0.00000 -3.01946 -6.42562 -28.06195 1.95895 8.78005 25.10969 -1.06658 19.85121 -16.69151 0.01958 0.90347 2.48326 0.00000 -0.00000 0.00000 13.73343 11.59429 -16.59738 -2.49958 -9.83714 28.45094 -1.00363 -6.42916 -22.29128 -0.26185 3.29208 -9.09300 3.91326 -2.09229 2.06796 -0.19341 -2.62619 -5.41150 -2.17321 -1.52713 -6.99708 22.26000 15.55510 3.52736 -19.63830 25.55670 22.42690 -7.47487 12.50900 12.48610 0.00000 0.00000 0.00000 -100.84085 -36.57716 65.57785 121.53167 -55.88778 -86.93022 -0.00000 0.00000 -56.25900 0.00000 0.00000 0.00000 100.91599 37.61076 83.82087 -131.02321 52.57439 -94.64072 0.00000 -0.00000 -16.36070
0.00000 0.88305 0.00000 -0.29211 -18.62010 12.83040 0.00000 -0.00000 0.00000 0.30502 -10.57548 -25.42171 1.04724 6.50769 18.26481 -2.05738 25.58375 -18.40015 0.27384 3.36600 9.29943 0.00000 -0.00000 0.00000 13.15529 10.63306 -14.73198 -2.16893 -9.20942 26.45264 -0.95446 -6.95076 -22.22542 -0.37101 3.91233 -10.83015 3.99896 -2.29413 1.56896 0.02897 -2.90163 -5.50538 -1.98245 -1.66108 -6.82102 22.48360 15.60800 3.89251 -19.40240 25.76130 23.13610 -7.42205 12.64500 12.75720 -0.00000 -0.00000 0.00000 -100.24192 -39.76171 69.02581 121.09308 -56.01155 -86.56684 -0.00000 0.00000 -55.49390 -0.00000 -0.00000 0.00000 101.82152 40.62161 87.18936 -134.03787 51.23121 -97.01352 0.00000 -0.00000 -16.10520
0.00000 0.88043 0.00000 -1.19738 -17.26710 13.29170 0.00000 -0.00000 0.00000 1.91679 -11.63609 -26.31537 1.00871 6.39052 17.92181 -2.40642 26.34981 -13.49738 0.22067 3.02393 8.34537 0.00000 -0.00000 0.00000 12.95599 9.33376 -11.81289 -1.68748 -8.18230 23.26918 -0.87184 -7.83847 -22.15445 -0.49303 4.50194 -12.49326 4.44664 -2.44909 0.90829 0.52199 -3.09120 -5.67805 -1.72617 -1.76503 -6.63655 22.61510 15.48960 3.90591 -19.03430 25.65140 23.97440 -7.35263 12.62130 13.03010 0.00000 0.00000 0.00000 -94.93266 -40.21398 70.68428 120.74663 -56.10767 -86.27941 -0.00000 0.00000 -51.30840 0.00000 0.00000 0.00000 99.40789 41.29580 87.13001 -136.83501 49.83717 -99.17325 0.00000 -0.00000 -16.41440
0.00000 0.87507 0.00000 -2.31583 -14.73680 13.57220 0.00000 -0.00000 0.00000 0.76730 -9.02022 -30.50511 1.63685 8.06473 22.91086 -1.16048 18.65317 -6.97380 0.03277 1.16854 3.21267 0.00000 -0.00000 0.00000 12.97024 7.26134 -7.72490 -1.14924 -6.80693 19.14463 -0.79342 -8.80445 -22.22948 -0.61589 5.02261 -13.97305 5.31146 -2.55241 0.38308 1.18218 -3.18400 -5.87807 -1.52874 -1.83967 -6.57252 22.46190 15.10400 3.40757 -18.36240 25.00050 24.93860 -7.21019 12.32480 13.21140 -0.00000 0.00000 0.00000 -87.11728 -37.36165 71.54174 119.81758 -56.35835 -85.50708 -0.00000 0.00000 -45.27170 -0.00000 0.00000 0.00000 94.47653 40.18559 84.17658 -140.00702 48.06574 -101.56598 0.00000 -0.00000 -16.35980
0.00000 0.86897 0.00000 -2.90393 -11.45160 13.57670 0.00000 -0.00000 0.00000 -1.28167 -8.00272 -34.45441 2.61225 10.03919 29.10374 -0.39151 11.45207 -7.59609 0.00827 -0.58739 -1.61411 0.00000 -0.00000 0.00000 12.48593 4.85459 -2.59124 -0.60771 -4.98974 13.87931 -0.64076 -10.08360 -21.96332 -0.69623 5.33384 -14.86324 5.58100 -2.48991 0.12779 1.87027 -3.06471 -5.97357 -0.97843 -1.77287 -6.49747 21.95550 14.45760 2.44021 -18.06080 23.89670 25.29410 -7.21053 11.75990 13.12240 -0.00000 0.00000 0.00000 -79.33207 -31.37370 72.36470 118.69302 -56.64826 -84.56928 -0.00000 0.00000 -41.92960 -0.00000 0.00000 0.00000 88.79959 38.46809 79.64167 -141.73733 47.00624 -102.84253 0.00000 -0.00000 -15.74960
0.00000 0.86269 0.00000 -3.42265 -8.61129 14.29980 0.00000 -0.00000 0.00000 -2.89507 -8.13822 -37.91510 3.54807 11.53342 34.10074 -0.02579 7.50752 -10.11693 0.04452 -1.36183 -3.74496 0.00000 -0.00000 0.00000 11.84497 2.19411 2.70810 -0.13120 -2.33478 6.43182 -0.31676 -11.40743 -20.09826 -0.77775 5.63067 -15.71647 5.55134 -1.88311 -0.17727 2.55935 -2.21744 -6.38436 -0.29671 -1.33892 -6.67886 21.22210 13.66680 1.05650 -17.84340 22.58600 25.78120 -7.22666 11.05370 13.11140 -0.00000 0.00000 0.00000 -71.96715 -22.83463 72.20790 114.33360 -57.63994 -80.90655 -0.00000 0.00000 -38.67740 -0.00000 0.00000 0.00000 83.45520 34.99461 74.51393 -143.72477 45.70155 -104.28084 0.00000 -0.00000 -12.02430
0.00000 0.85701 0.00000 -3.95232 -7.08899 15.58500 0.00000 -0.00000 0.00000 -3.77816 -8.13933 -41.99510 4.74731 13.09345 39.71930 0.24339 5.03132 -12.53477 0.05631 -1.53126 -4.21190 0.00000 -0.00000 0.00000 10.79655 -0.39939 6.17436 0.00000 0.00000 -0.00000 -0.17956 -10.98156 -18.03433 -0.85878 5.90962 -16.52242 5.57345 -0.93217 -0.37166 2.81259 -0.92222 -6.70872 -0.11873 -0.69654 -6.84739 20.59240 13.17870 -0.76748 -17.55790 21.55330 25.86770 -7.10975 10.45270 13.11470 -0.00000 0.00000 0.00000 -64.30857 -13.07371 68.83831 103.70762 -59.27797 -71.84236 -0.00000 0.00000 -34.84690 -0.00000 0.00000 0.00000 80.12245 30.53359 70.22799 -145.43808 44.49677 -105.49454 0.00000 -0.00000 -10.24810
